<svg width="30" height="30" viewBox="0 0 30 30" xmlns="http://www.w3.org/2000/svg">
<path d="M12.9386 0C9.73623 0 7.13086 2.60531 7.13086 5.80775C7.13086 9.01008 9.73623 11.6154 12.9386 11.6154C16.141 11.6154 18.7463 9.01014 18.7463 5.80775C18.7463 2.60531 16.141 0 12.9386 0Z"/>
<path d="M16.3661 12.838H9.51123C7.08809 12.838 5.1167 14.8093 5.1167 17.2325V25.8452C5.1167 27.2991 6.29953 28.4819 7.75342 28.4819H12.8473C12.0045 27.262 11.51 25.7839 11.51 24.1922C11.51 20.0206 14.9038 16.6267 19.0755 16.6267C19.6472 16.6267 20.2042 16.6909 20.74 16.8117C20.5274 14.5853 18.6472 12.838 16.3661 12.838Z"/>
<path d="M19.0758 18.3846C15.8734 18.3846 13.2681 20.9899 13.2681 24.1922C13.2681 27.3946 15.8734 30 19.0758 30C22.2781 30 24.8834 27.3947 24.8834 24.1922C24.8834 20.9899 22.2781 18.3846 19.0758 18.3846ZM21.1643 25.0712H19.9546V26.2808C19.9546 26.7662 19.5611 27.1597 19.0757 27.1597C18.5903 27.1597 18.1968 26.7662 18.1968 26.2808V25.0712H16.9871C16.5017 25.0712 16.1082 24.6776 16.1082 24.1922C16.1082 23.7069 16.5017 23.3133 16.9871 23.3133H18.1968V22.1037C18.1968 21.6183 18.5903 21.2248 19.0757 21.2248C19.5611 21.2248 19.9546 21.6183 19.9546 22.1037V23.3133H21.1643C21.6497 23.3133 22.0432 23.7069 22.0432 24.1922C22.0432 24.6776 21.6497 25.0712 21.1643 25.0712Z"/>
</svg>
