<svg width="21" height="21" viewBox="0 0 21 21" xmlns="http://www.w3.org/2000/svg">
<g clip-path="url(#clip0)">
<path d="M19.6044 3.53897C18.703 2.63753 17.5045 2.14112 16.2297 2.14112C14.9549 2.14112 13.7564 2.63753 12.855 3.53897L5.33167 11.0622C4.21521 12.1787 4.21521 13.9953 5.33174 15.1119C6.44827 16.2284 8.26497 16.2283 9.38143 15.1118L14.3354 10.1578C14.7081 9.78508 14.7081 9.18074 14.3354 8.80797C13.9627 8.4352 13.3583 8.4352 12.9855 8.80797L8.03156 13.7619C7.65942 14.1342 7.05381 14.1341 6.68162 13.762C6.30942 13.3898 6.30942 12.7842 6.68155 12.412L14.2049 4.88891C14.7458 4.34808 15.4648 4.05021 16.2297 4.05021C16.9946 4.05021 17.7137 4.34808 18.2545 4.88891C19.371 6.00544 19.371 7.82208 18.2546 8.93861L10.0564 17.1366C8.19548 18.9974 5.16769 18.9974 3.30695 17.1366C2.40551 16.2353 1.90903 15.0368 1.90903 13.762C1.90903 12.4872 2.40551 11.2886 3.30695 10.3872L11.505 2.18903C11.8777 1.81626 11.8777 1.21193 11.505 0.839155C11.1323 0.466448 10.5279 0.466384 10.1551 0.839155L1.95708 9.03731C0.695015 10.2993 0 11.9772 0 13.762C0 15.5467 0.695015 17.2246 1.95708 18.4866C3.2598 19.7893 4.97042 20.4406 6.68162 20.4404C8.39243 20.4403 10.1038 19.789 11.4063 18.4866L19.6045 10.2884C21.4652 8.42756 21.4652 5.39983 19.6044 3.53897Z"/>
</g>
<defs>
<clipPath id="clip0">
<rect width="21" height="21" fill="white"/>
</clipPath>
</defs>
</svg>
