<svg width="30" height="24" viewBox="0 0 30 24" xmlns="http://www.w3.org/2000/svg">
<path d="M28.0769 4.3077H22.6265L21.465 1.21024C21.2962 0.759856 20.8656 0.461548 20.3846 0.461548H9.61539C9.13439 0.461548 8.70385 0.759856 8.535 1.21024L7.37346 4.3077H1.92308C0.861 4.3077 0 5.1687 0 6.23078V21.6154C0 22.6775 0.861 23.5385 1.92308 23.5385H28.0769C29.139 23.5385 30 22.6775 30 21.6154V6.23078C30 5.1687 29.139 4.3077 28.0769 4.3077ZM15 6.61539C19.0295 6.61539 22.3077 9.89362 22.3077 13.9231C22.3077 17.9525 19.0295 21.2308 15 21.2308C10.9705 21.2308 7.69231 17.9525 7.69231 13.9231C7.69231 9.89362 10.9705 6.61539 15 6.61539Z"/>
<path d="M10 13.9231C10 16.6801 12.243 18.9231 15 18.9231C17.757 18.9231 20 16.6801 20 13.9231C20 11.1661 17.757 8.9231 15 8.9231C12.243 8.9231 10 11.1661 10 13.9231Z"/>
</svg>
