<svg width="60" height="60" viewBox="0 0 60 60" fill="none" xmlns="http://www.w3.org/2000/svg">
<path d="M30 60C46.5685 60 60 46.5685 60 30C60 13.4315 46.5685 0 30 0C13.4315 0 0 13.4315 0 30C0 46.5685 13.4315 60 30 60Z" fill="#C63C22"/>
<path d="M13.8364 37.1594L36.0639 59.3869C48.7118 56.7907 58.4554 46.2345 59.8322 33.1836L46.1156 19.4671L13.8364 37.1594Z" fill="#C63C22"/>
<path d="M30 13.3333C18.9543 13.3333 10 20.0491 10 28.3333C10 36.0459 17.7616 42.398 27.7461 43.238L26.6667 50L30 47.0679V13.3333Z" fill="#FFCD02"/>
<path d="M30 13.3333V47.0679L34.7261 42.9109C43.4905 41.3182 50 35.3964 50 28.3333C50 20.0491 41.0457 13.3333 30 13.3333Z" fill="#FFCD02"/>
<path d="M30 13.3333V47.0679L34.7261 42.9109C43.4905 41.3182 50 35.3964 50 28.3333C50 20.0491 41.0457 13.3333 30 13.3333Z" fill="#FFCD02"/>
<path d="M39.9998 31.4141C41.4502 31.4141 42.6261 30.2383 42.6261 28.7879C42.6261 27.3374 41.4502 26.1616 39.9998 26.1616C38.5494 26.1616 37.3735 27.3374 37.3735 28.7879C37.3735 30.2383 38.5494 31.4141 39.9998 31.4141Z" fill="#CC3B3B"/>
<path d="M29.9998 31.4141C31.4502 31.4141 32.6261 30.2383 32.6261 28.7879C32.6261 27.3374 31.4502 26.1616 29.9998 26.1616C28.5494 26.1616 27.3735 27.3374 27.3735 28.7879C27.3735 30.2383 28.5494 31.4141 29.9998 31.4141Z" fill="#C63C22"/>
<path d="M32.6263 28.7879C32.6263 27.3374 31.4505 26.1616 30 26.1616V31.4141C31.4505 31.4141 32.6263 30.2384 32.6263 28.7879Z" fill="#CC3B3B"/>
<path d="M19.9998 31.4141C21.4502 31.4141 22.6261 30.2383 22.6261 28.7879C22.6261 27.3374 21.4502 26.1616 19.9998 26.1616C18.5494 26.1616 17.3735 27.3374 17.3735 28.7879C17.3735 30.2383 18.5494 31.4141 19.9998 31.4141Z" fill="#C63C22"/>
</svg>
