<svg width="25" height="25" viewBox="0 0 25 25" xmlns="http://www.w3.org/2000/svg">
<path d="M15.4711 1.51923L16.6154 1.91346L17.6923 2.39423L18.7019 2.97115L19.6346 3.63462L20.4904 4.375L21.25 5.19231L21.9134 6.06731L22.4711 7.00961L22.9231 8L23.25 9.03846L23.4519 10.1154L23.5192 11.2308L23.4519 12.3462L23.2981 13.1827L23.25 13.125L22.25 12.2981L21.1057 11.6827L19.8461 11.2885L18.4904 11.1538L17.1346 11.2885L15.875 11.6827L14.7308 12.2981L13.7308 13.125L12.9134 14.125L12.2884 15.2692L11.8942 16.5288L11.7596 17.8846L11.8942 19.2404L12.2884 20.5L12.7788 21.4135L11.7596 21.4615L11.5673 21.4519H11.3654L11.1731 21.4423L10.9807 21.4327L10.7884 21.4231L10.5961 21.4038L10.4038 21.3942L10.2019 21.3654L10.0192 21.3462L9.82692 21.3173L9.63461 21.2885L9.44231 21.2596L9.25 21.2212L9.06731 21.1923L8.875 21.1442L8.74038 21.2885L8.56731 21.4615L8.35577 21.6442L8.125 21.8462L7.85577 22.0481L7.5577 22.2596L7.22115 22.4712L6.86539 22.6731L6.48077 22.8654L6.06731 23.0385L5.625 23.1923L5.16346 23.3173L4.66346 23.4231L4.14423 23.4808L3.60577 23.5H2.59615L3.15385 22.7019L3.36539 22.3942L3.54808 22.0962L3.71154 21.8173L3.85577 21.5385L3.99039 21.2692L4.10577 21.0096L4.20192 20.7596L4.28846 20.5288L4.35577 20.3077L4.41346 20.1058L4.46154 19.9135L4.5 19.7404L4.52885 19.5865L4.55769 19.4519L4.57692 19.3269L4.00962 18.9327L3.49038 18.5L2.99038 18.0481L2.53846 17.5769L2.10577 17.0769L1.72115 16.5577L1.36539 16.0192L1.05769 15.4615L0.778847 14.8942L0.548076 14.3077L0.346151 13.7115L0.192305 13.1058L0.086535 12.4808L0.019227 11.8558L0 11.2308L0.067307 10.1154L0.269229 9.03846L0.596153 8L1.04808 7.00961L1.60577 6.06731L2.26923 5.19231L3.02885 4.375L3.88462 3.63462L4.81731 2.97115L5.82692 2.39423L6.90385 1.91346L8.04807 1.51923L9.24039 1.24038L10.4808 1.05769L11.7596 1L13.0384 1.05769L14.2788 1.24038L15.4711 1.51923Z"/>
<path d="M12.9092 18.2101C12.9092 15.0274 15.4957 12.4409 18.6784 12.4409C21.8611 12.4409 24.4476 15.0274 24.4476 18.2101C24.4476 21.3928 21.8611 23.9794 18.6784 23.9794C15.4957 23.9794 12.9092 21.3928 12.9092 18.2101ZM19.3706 17.4409V13.9409H17.8706V17.4409H14.3706V18.9409H17.8706V22.4409H19.3706V18.9409H22.8706V17.4409H19.3706Z"/>
</svg>
