<svg width="18" height="18" viewBox="0 0 18 18" fill="none" xmlns="http://www.w3.org/2000/svg">
<ellipse cx="9" cy="9.20527" rx="9" ry="8.77906" fill="#F86363"/>
<path d="M9.83252 12.8408C9.83252 12.9553 9.81104 13.0628 9.76807 13.163C9.7251 13.2633 9.66602 13.351 9.59082 13.4262C9.51921 13.5014 9.43327 13.5605 9.33301 13.6035C9.23275 13.6464 9.12533 13.6679 9.01074 13.6679C8.89616 13.6679 8.78874 13.6464 8.68848 13.6035C8.58822 13.5605 8.50049 13.5014 8.42529 13.4262C8.3501 13.351 8.29102 13.2633 8.24805 13.163C8.20508 13.0628 8.18359 12.9553 8.18359 12.8408C8.18359 12.7298 8.20508 12.6241 8.24805 12.5239C8.29102 12.4236 8.3501 12.3377 8.42529 12.2661C8.50049 12.1944 8.58822 12.1371 8.68848 12.0942C8.78874 12.0512 8.89616 12.0297 9.01074 12.0297C9.12533 12.0297 9.23275 12.0512 9.33301 12.0942C9.43327 12.1371 9.51921 12.1944 9.59082 12.2661C9.66602 12.3377 9.7251 12.4236 9.76807 12.5239C9.81104 12.6241 9.83252 12.7298 9.83252 12.8408ZM9.95605 6.52972C9.95605 6.75889 9.94173 7.02028 9.91309 7.3139C9.88802 7.60394 9.85221 7.91368 9.80566 8.2431C9.7627 8.57253 9.71257 8.91628 9.65527 9.27435C9.59798 9.62885 9.54069 9.98334 9.4834 10.3378C9.45117 10.5455 9.41895 10.7478 9.38672 10.9448C9.35449 11.1417 9.32406 11.3351 9.29541 11.5248C9.28467 11.5965 9.25244 11.6555 9.19873 11.7021C9.14502 11.7451 9.08236 11.7665 9.01074 11.7665C8.94271 11.7665 8.88184 11.7451 8.82812 11.7021C8.77799 11.6555 8.74756 11.5965 8.73682 11.5248C8.70817 11.3315 8.67594 11.131 8.64014 10.9233C8.60433 10.7156 8.57031 10.5008 8.53809 10.2787C8.48079 9.93142 8.4235 9.58409 8.36621 9.23676C8.3125 8.88584 8.26416 8.54926 8.22119 8.22699C8.17822 7.90114 8.14242 7.59499 8.11377 7.30853C8.0887 7.01849 8.07617 6.75889 8.07617 6.52972C8.07617 6.40082 8.09945 6.28086 8.146 6.16986C8.19613 6.05528 8.26416 5.95502 8.3501 5.86908C8.43604 5.78314 8.53451 5.7169 8.64551 5.67035C8.76009 5.62022 8.88184 5.59515 9.01074 5.59515C9.13965 5.59515 9.26139 5.62022 9.37598 5.67035C9.49056 5.7169 9.59082 5.78314 9.67676 5.86908C9.7627 5.95502 9.83073 6.05528 9.88086 6.16986C9.93099 6.28086 9.95605 6.40082 9.95605 6.52972Z" fill="white"/>
</svg>
