<svg width="60" height="60" viewBox="0 0 60 60" fill="none" xmlns="http://www.w3.org/2000/svg">
<circle cx="30" cy="30" r="30" fill="#B7CBF0"/>
<path d="M45.0002 31.1295C45.0002 29.0274 43.298 28.0798 41.3253 26.8012L37.7453 19.0149C33.5241 19.0149 33.0234 23.2971 30.0002 23.2971C26.977 23.2971 26.4763 19.0149 22.2551 19.0149L18.6751 26.8012C17.8116 27.3609 16.9999 27.8572 16.3601 28.4146C15.4335 29.7728 15.3873 30.8202 15.4364 31.7318C27.5203 34.809 30.2118 34.809 42.649 34.0747C43.6156 33.8392 44.1352 33.6693 44.1352 33.6693C44.6925 32.7659 45.0002 31.8931 45.0002 31.1295Z" fill="#C9EB74"/>
<path d="M42.0138 30.5032C40.1244 30.8145 34.6895 32.957 30 32.957C25.312 32.957 19.8719 30.8139 17.9862 30.5032C17.3017 30.3904 16.7874 30.4641 16.4129 30.6324C16.1652 30.7437 15.8882 30.5559 15.9028 30.2848C15.9362 29.6648 16.0723 29.0838 16.3599 28.4147C15.5381 29.1307 15 29.9476 15 31.1296C15 31.8933 15.3077 32.7662 15.865 33.6696C15.865 33.6696 21.3997 35.4803 30 35.4803C35.9674 35.4803 40.458 34.6085 42.6488 34.0747C43.2419 33.3529 43.771 32.6705 43.9573 32.3217C44.4616 31.3778 43.5199 30.255 42.0138 30.5032Z" fill="#ABD641"/>
<path d="M28.4796 29.8879C28.2296 29.8879 28.0269 29.6852 28.0269 29.4352V28.7113C28.0269 28.4613 28.2296 28.2586 28.4796 28.2586C28.7296 28.2586 28.9323 28.4613 28.9323 28.7113V29.4352C28.9323 29.6853 28.7296 29.8879 28.4796 29.8879Z" fill="#87A733"/>
<path d="M31.5201 29.8879C31.27 29.8879 31.0674 29.6852 31.0674 29.4352V28.7113C31.0674 28.4613 31.27 28.2586 31.5201 28.2586C31.7702 28.2586 31.9728 28.4613 31.9728 28.7113V29.4352C31.9728 29.6853 31.7701 29.8879 31.5201 29.8879Z" fill="#87A733"/>
<path d="M29.9998 40.5022C36.0593 40.5022 42.6549 36.3485 43.9569 32.3215C43.6653 31.6859 43.0593 31.2561 42.1344 31.4085C40.2487 31.7193 34.6878 33.8623 29.9999 33.8623C25.312 33.8623 19.751 31.7193 17.8654 31.4086C16.9406 31.2562 16.3345 31.686 16.043 32.3216C17.3229 36.3485 23.9405 40.5022 29.9998 40.5022Z" fill="#FFF0AF"/>
<path d="M30 40.0797C23.9406 40.0797 18.2629 36.3067 16.0431 32.3217C15.86 32.7208 15.8005 33.2008 15.865 33.6697C17.9848 37.1061 23.7282 40.9851 30 40.9851C36.2718 40.9851 42.0152 37.1055 44.135 33.6693C44.1994 33.2005 44.14 32.7205 43.957 32.3215C41.7373 36.3066 36.0595 40.0797 30 40.0797Z" fill="#FFD064"/>
<path d="M35.3043 24.8055C36.1187 27.3439 38.2523 28.7934 40.0697 28.0429C40.2762 27.9576 40.6741 27.6893 40.9505 27.413C41.8453 26.2184 42.1174 24.3008 41.5236 22.4502C40.7092 19.9119 38.5757 18.4624 36.7582 19.2128C36.5517 19.2981 36.359 19.4092 36.1793 19.5409C34.9477 20.7726 34.7105 22.9549 35.3043 24.8055Z" fill="#E27F86"/>
<path d="M39.7074 28.4051C40.1998 28.2018 40.6178 27.857 40.9503 27.413C40.7707 27.5447 40.5779 27.6558 40.3714 27.7411C38.5539 28.4915 36.4204 27.0421 35.606 24.5037C35.0123 22.6531 35.2843 20.7355 36.1792 19.5409C34.8685 20.502 34.2959 22.6187 34.8177 24.7292C34.8538 24.8756 35.0397 25.4551 35.0948 25.5933C36 27.865 37.9941 29.1125 39.7074 28.4051Z" fill="#D16161"/>
<path d="M35.9018 25.2589C35.9023 25.26 35.9036 25.2604 35.9047 25.26L38.4053 24.2274C38.6402 24.1305 38.7499 23.8588 38.6463 23.6252C38.5454 23.3975 38.2706 23.3035 38.0405 23.3985L35.5805 24.4143C35.5794 24.4147 35.5789 24.4158 35.5792 24.4169L35.5757 25.0041L35.9018 25.2589Z" fill="#8C5E5E"/>
<path d="M35.9029 25.2607C35.7911 25.0208 35.691 24.7686 35.606 24.5037C35.5965 24.4741 35.5879 24.4446 35.5789 24.415L34.8179 24.7292C34.854 24.8756 34.8952 25.0219 34.942 25.1678C34.9888 25.3134 35.0403 25.4549 35.0954 25.5931C35.1019 25.5908 35.1085 25.5888 35.1149 25.5862L35.9029 25.2607Z" fill="#664646"/>
<path d="M20.6548 28.0429C21.6652 28.4601 23.0874 27.9936 23.9996 27.1431C24.3591 26.7067 24.6691 26.185 24.9051 25.5933C24.9602 25.4552 25.1462 24.8755 25.1823 24.7292C25.7756 22.3292 24.9548 19.9201 23.2418 19.2128C22.2314 18.7956 21.1236 19.0591 20.1988 19.8109C19.5635 20.44 19.0853 21.3191 18.8386 22.088C18.0242 24.6264 18.8374 27.2925 20.6548 28.0429Z" fill="#E27F86"/>
<path d="M25.1818 24.729L21.94 23.3905C21.7087 23.295 21.4442 23.4051 21.3488 23.6362C21.2534 23.8673 21.3634 24.132 21.5945 24.2274L24.8853 25.5861C24.8914 25.5887 24.8975 25.5905 24.9036 25.5926C24.9588 25.4543 25.0113 25.3134 25.058 25.1676C25.1049 25.0218 25.1457 24.8754 25.1818 24.729Z" fill="#8C5E5E"/>
<path d="M20.2925 28.4051C21.5593 28.9282 22.9793 28.3815 23.9995 27.1431C23.0747 27.8948 21.9668 28.1584 20.9564 27.7411C19.139 26.9907 18.3259 24.3246 19.1403 21.7862C19.387 21.0173 19.7554 20.3491 20.1987 19.8109C19.4601 20.4114 18.838 21.323 18.4763 22.4502C17.6619 24.9886 18.4751 27.6547 20.2925 28.4051Z" fill="#D16161"/>
</svg>
