<svg width="15" height="15" viewBox="0 0 15 15" xmlns="http://www.w3.org/2000/svg">
<path d="M7.4751 13.7293H1.86876C1.5249 13.7293 1.24585 13.4502 1.24585 13.1064V1.89372C1.24585 1.54986 1.52493 1.27081 1.86876 1.27081H7.4751C7.81957 1.27081 8.09801 0.992374 8.09801 0.647902C8.09801 0.303429 7.81957 0.0249329 7.4751 0.0249329H1.86876C0.838447 0.0249329 0 0.86341 0 1.89372V13.1063C0 14.1367 0.838447 14.9751 1.86876 14.9751H7.4751C7.81957 14.9751 8.09801 14.6967 8.09801 14.3522C8.09801 14.0077 7.81957 13.7293 7.4751 13.7293Z"/>
<path d="M14.3309 6.91688L10.5436 3.17934C10.2994 2.93764 9.90447 2.94077 9.66277 3.18558C9.42107 3.43038 9.42356 3.82469 9.66901 4.06639L12.3756 6.73747H5.12291C4.77844 6.73747 4.5 7.01591 4.5 7.36038C4.5 7.70485 4.77844 7.98332 5.12291 7.98332H12.3756L9.66901 10.6544C9.42359 10.8961 9.42171 11.2904 9.66277 11.5352C9.78485 11.6586 9.94557 11.7208 10.1063 11.7208C10.2645 11.7208 10.4227 11.661 10.5436 11.5414L14.3309 7.80388C14.4493 7.68678 14.5166 7.52729 14.5166 7.36035C14.5166 7.19348 14.4499 7.03463 14.3309 6.91688Z"/>
</svg>
