<svg width="25" height="25" viewBox="0 0 25 25" fill="none" xmlns="http://www.w3.org/2000/svg">
<path d="M12.5 0C5.60722 0 0 5.60722 0 12.5C0 19.3928 5.60722 25 12.5 25C19.3928 25 25 19.3928 25 12.5C25 5.60722 19.3928 0 12.5 0Z" fill="#F44336"/>
<path d="M17.1036 15.6301C17.5108 16.0376 17.5108 16.6958 17.1036 17.1032C16.9005 17.3063 16.6338 17.4084 16.367 17.4084C16.1003 17.4084 15.8337 17.3063 15.6306 17.1032L12.5004 13.9728L9.37026 17.1032C9.16712 17.3063 8.90048 17.4084 8.63383 17.4084C8.36699 17.4084 8.10034 17.3063 7.89721 17.1032C7.48999 16.6958 7.48999 16.0376 7.89721 15.6301L11.0276 12.5L7.89721 9.36984C7.48999 8.96243 7.48999 8.30421 7.89721 7.8968C8.30462 7.48958 8.96285 7.48958 9.37026 7.8968L12.5004 11.0271L15.6306 7.8968C16.038 7.48958 16.6962 7.48958 17.1036 7.8968C17.5108 8.30421 17.5108 8.96243 17.1036 9.36984L13.9733 12.5L17.1036 15.6301Z" fill="#FAFAFA"/>
</svg>
