<svg width="30" height="30" viewBox="0 0 30 30" xmlns="http://www.w3.org/2000/svg">
<path d="M29.4375 26.9811L21.5625 19.0566C21.1875 18.6792 20.625 18.4906 20.0625 18.4906C21.5625 16.6038 22.5 13.9623 22.5 11.3208C22.5 5.09434 17.4375 0 11.25 0C5.0625 0 0 5.09434 0 11.3208C0 17.5472 5.0625 22.6415 11.25 22.6415C13.875 22.6415 16.5 21.6981 18.375 20C18.375 20.566 18.375 21.1321 18.9375 21.5094L26.8125 29.434C27.1875 29.8113 27.75 30 28.125 30C28.5 30 29.0625 29.8113 29.4375 29.434C30.1875 28.8679 30.1875 27.7359 29.4375 26.9811ZM11.25 19.8113C6.5625 19.8113 2.8125 16.0377 2.8125 11.3208C2.8125 6.60377 6.5625 2.83019 11.25 2.83019C15.9375 2.83019 19.6875 6.60377 19.6875 11.3208C19.6875 16.0377 15.9375 19.8113 11.25 19.8113Z"/>
</svg>
