<svg width="25" height="25" viewBox="0 0 25 25" fill="none" xmlns="http://www.w3.org/2000/svg">
<g clip-path="url(#clip0)">
<path d="M22.5246 1.67091C22.3386 1.6212 22.2058 1.45732 22.1956 1.26523L22.1748 0.864976C22.1637 0.673316 22.0306 0.510306 21.8448 0.461034C21.6592 0.411762 21.4628 0.487515 21.3582 0.648571L21.1407 0.983706C21.0356 1.14563 20.8381 1.22138 20.6519 1.17081L20.2664 1.06727C20.0795 1.01626 19.8811 1.09202 19.7761 1.25459C19.6708 1.41717 19.6827 1.62902 19.8058 1.77857L20.0569 2.08983C20.1509 2.20682 20.1789 2.36353 20.1312 2.50592L22.6892 1.7154L22.5246 1.67091Z" fill="#519581"/>
<path d="M22.9103 1.77379L22.6881 1.7141L20.1311 2.50093C20.1211 2.53804 20.1062 2.57364 20.0868 2.60685L19.8694 2.94155C19.7641 3.10326 19.7752 3.31445 19.8967 3.46444C20.0185 3.61421 20.2229 3.66847 20.4029 3.59858L20.7754 3.45532C20.9549 3.38587 21.1587 3.4397 21.2802 3.58881L21.5316 3.89986C21.6527 4.04962 21.8563 4.10432 22.0362 4.0353C22.216 3.96627 22.331 3.78937 22.321 3.59706L22.3002 3.19703C22.29 3.00471 22.4048 2.82781 22.5845 2.75879L22.9572 2.61553C23.1348 2.54499 23.2476 2.36874 23.237 2.17795C23.2264 1.98694 23.0948 1.82414 22.9103 1.77379Z" fill="#508273"/>
<path d="M8.11545 2.23547C8.23852 2.08613 8.25068 1.87407 8.14541 1.71149C8.04013 1.54892 7.84174 1.47316 7.65486 1.52439L5.75496 2.03512C5.69679 2.04945 5.63623 2.05162 5.57719 2.0412L3.04501 6.78302L3.02114 7.24861C3.01093 7.44092 3.12576 7.61804 3.3057 7.68706C3.48542 7.75608 3.68945 7.7016 3.81057 7.55162L5.04823 6.02289C5.16978 5.87399 5.37381 5.82016 5.5531 5.88961L7.38961 6.59418C7.56955 6.66407 7.77402 6.60981 7.89557 6.46004C8.01734 6.31027 8.02841 6.09886 7.92292 5.93715L6.84849 4.28578C6.74365 4.12429 6.75451 3.91353 6.87562 3.76376L8.11545 2.23547Z" fill="#63A490"/>
<path d="M5.26704 1.84889L4.19586 0.199257C4.09037 0.0397207 3.89459 -0.0342956 3.71009 0.0151933C3.52538 0.0646821 3.39297 0.226606 3.38147 0.417399L3.27641 2.38219C3.26643 2.57472 3.13359 2.73882 2.94757 2.78852L1.04768 3.29665C0.861441 3.34636 0.728385 3.51045 0.718401 3.70277C0.708199 3.8953 0.823239 4.07241 1.00318 4.14122L2.83948 4.84579C3.0192 4.91481 3.13424 5.09193 3.12404 5.28424L3.04525 6.78302L5.57569 2.0412C5.45002 2.02449 5.33758 1.95438 5.26704 1.84889Z" fill="#508273"/>
<path d="M16.4561 9.55113L13.1749 4.49914C12.9652 4.17594 12.5713 4.02465 12.199 4.12428C11.8267 4.22413 11.5613 4.5521 11.5413 4.93694L11.2262 10.9529C11.206 11.3373 10.9405 11.6653 10.5687 11.7649L4.74984 13.324C4.37737 13.4234 4.11126 13.7514 4.09107 14.1362C4.07089 14.5211 4.30097 14.8753 4.66085 15.0131L10.285 17.1718C10.6447 17.3098 10.8747 17.6636 10.8546 18.0485L10.5735 23.4041L16.8436 9.87433C16.6856 9.80704 16.5508 9.6946 16.4561 9.55113Z" fill="#508273"/>
<path d="M24.1716 9.78513C24.4134 9.48581 24.4354 9.06494 24.2259 8.74218C24.0164 8.41941 23.6231 8.26791 23.2513 8.3671L17.4316 9.926C17.2354 9.97701 17.0276 9.95878 16.8434 9.87434L10.5733 23.4041L10.5379 24.0642C10.5175 24.449 10.7473 24.8031 11.107 24.9411C11.4669 25.0789 11.8745 24.9698 12.1167 24.6702L15.9076 19.9887C16.1501 19.6894 16.5577 19.5802 16.9172 19.7181L22.5415 21.8771C22.901 22.0158 23.309 21.9071 23.5517 21.6078C23.7944 21.3085 23.8167 20.8869 23.6071 20.5635L20.3254 15.5107C20.1157 15.1877 20.1379 14.7661 20.3801 14.4668L24.1716 9.78513Z" fill="#559C87"/>
</g>
<defs>
<clipPath id="clip0">
<rect width="25" height="25" fill="white"/>
</clipPath>
</defs>
</svg>
