<svg width="10" height="10" viewBox="0 0 10 10" xmlns="http://www.w3.org/2000/svg">
<path d="M3.37066 0.909091C3.37066 0.610987 3.60331 0.39312 3.90141 0.39312H6.08325C6.38126 0.39312 6.6139 0.610987 6.6139 0.909091V1.4742H7.00702V0.909091C7.00702 0.394272 6.59807 0 6.08325 0H3.90141C3.38659 0 2.97754 0.394272 2.97754 0.909091V1.4742H3.37066V0.909091Z" />
<path d="M2.6682 10H7.31683C7.76504 10 8.11286 9.60573 8.11286 9.11548V3.04668H1.87207V9.11548C1.87207 9.60573 2.21989 10 2.6682 10ZM6.24553 3.98524C6.24553 3.87669 6.33355 3.78868 6.4421 3.78868C6.55064 3.78868 6.63866 3.87669 6.63866 3.98524V8.62897C6.63866 8.73752 6.55064 8.82554 6.4421 8.82554C6.33355 8.82554 6.24553 8.73752 6.24553 8.62897V3.98524ZM4.7959 3.98524C4.7959 3.87669 4.88391 3.78868 4.99246 3.78868C5.10101 3.78868 5.18902 3.87669 5.18902 3.98524V8.62897C5.18902 8.73752 5.10101 8.82554 4.99246 8.82554C4.88391 8.82554 4.7959 8.73752 4.7959 8.62897V3.98524ZM3.34627 3.98524C3.34627 3.87669 3.43428 3.78868 3.54283 3.78868C3.65138 3.78868 3.73939 3.87669 3.73939 3.98524V8.62897C3.73939 8.73752 3.65138 8.82554 3.54283 8.82554C3.43428 8.82554 3.34627 8.73752 3.34627 8.62897V3.98524Z"/>
<path d="M1.67109 2.65356H8.31478C8.58621 2.65356 8.80619 2.43358 8.80619 2.16216C8.80619 1.89074 8.58621 1.67076 8.31478 1.67076H1.67109C1.39967 1.67076 1.17969 1.89074 1.17969 2.16216C1.17969 2.43358 1.39967 2.65356 1.67109 2.65356Z"/>
</svg>
